# Blender v2.80 (sub 75) OBJ File: ''
# www.blender.org
mtllib Key.mtl
o Key_Cube
v 0.139276 0.139276 -0.022129
v 0.139276 -0.139276 -0.022129
v 0.139276 0.139276 0.022129
v 0.139276 -0.139276 0.022129
v -0.139276 0.139276 -0.022129
v -0.139276 -0.139276 -0.022129
v -0.139276 0.139276 0.022129
v -0.139276 -0.139276 0.022129
v 0.139276 0.399224 0.022129
v -0.139276 0.399224 0.022129
v 0.139276 0.399224 -0.022129
v -0.139276 0.399224 -0.022129
v 0.139276 0.670156 0.022129
v -0.139276 0.670156 0.022129
v 0.139276 0.670156 -0.022129
v -0.139276 0.670156 -0.022129
v 0.139276 1.424370 0.022129
v -0.139276 1.424370 0.022129
v 0.139276 1.424370 -0.022129
v -0.139276 1.424370 -0.022129
v 0.300218 0.139276 -0.022129
v 0.300218 -0.139276 -0.022129
v 0.300218 0.139276 0.022129
v 0.300218 -0.139276 0.022129
v 0.395563 0.399224 -0.022129
v 0.395563 0.399224 0.022129
v 0.395563 0.670156 -0.022129
v 0.395563 0.670156 0.022129
v 0.000000 -0.235019 -0.048133
v 0.000000 0.139277 0.123071
v 0.000000 -0.235019 0.048133
v 0.000000 0.139277 -0.123071
v 0.000000 0.399224 0.123071
v 0.000000 0.399224 -0.123071
v 0.000000 0.670156 0.123071
v 0.000000 0.670156 -0.123071
v 0.000000 1.424370 0.123071
v 0.000000 1.424370 -0.123071
v -0.520181 2.410437 -0.022129
v 0.520181 2.410437 -0.022129
v -0.162550 2.548498 -0.022129
v 0.162550 2.548498 -0.022129
v -0.162550 2.548498 0.022129
v 0.162550 2.548498 0.022129
v 0.000000 2.548498 -0.123071
v 0.000000 2.548498 0.123071
v 0.000000 2.471876 0.123071
v -0.520181 2.410437 0.022129
v 0.520181 2.410437 0.022129
v 0.000000 2.471876 -0.123071
v 0.409159 2.471876 0.022129
v -0.409159 2.471876 0.022129
v 0.409159 2.471876 -0.022129
v -0.409159 2.471876 -0.022129
v 0.453807 1.866716 0.022129
v 0.453807 1.866716 -0.022129
v -0.453807 1.866716 -0.022129
v 0.000000 1.866716 -0.123071
v 0.000000 1.866716 0.123071
v -0.453807 1.866716 0.022129
v 0.000000 2.410437 -0.123071
v 0.000000 2.410437 0.123071
v 0.481547 0.534690 0.022129
v 0.481547 0.534690 -0.022129
v 0.386202 0.000000 0.022129
v 0.386202 0.000000 -0.022129
vt 0.875000 0.625000
vt 0.875000 0.500000
vt 0.875000 0.500000
vt 0.875000 0.625000
vt 0.375000 0.375000
vt 0.625000 0.375000
vt 0.625000 0.500000
vt 0.375000 0.500000
vt 0.625000 0.750000
vt 0.375000 0.750000
vt 0.500000 0.750000
vt 0.625000 0.750000
vt 0.625000 1.000000
vt 0.500000 1.000000
vt 0.625000 0.250000
vt 0.625000 0.250000
vt 0.625000 0.250000
vt 0.625000 0.250000
vt 0.625000 0.250000
vt 0.625000 0.625000
vt 0.875000 0.750000
vt 0.625000 0.750000
vt 0.625000 0.500000
vt 0.625000 0.500000
vt 0.625000 0.750000
vt 0.625000 0.250000
vt 0.625000 0.375000
vt 0.375000 0.750000
vt 0.375000 0.500000
vt 0.375000 0.500000
vt 0.375000 0.750000
vt 0.875000 0.625000
vt 0.875000 0.500000
vt 0.875000 0.500000
vt 0.875000 0.625000
vt 0.625000 0.375000
vt 0.375000 0.500000
vt 0.375000 0.750000
vt 0.375000 0.750000
vt 0.375000 0.500000
vt 0.875000 0.625000
vt 0.875000 0.500000
vt 0.875000 0.500000
vt 0.875000 0.625000
vt 0.375000 0.500000
vt 0.375000 0.750000
vt 0.625000 0.500000
vt 0.625000 0.750000
vt 0.625000 0.250000
vt 0.625000 0.375000
vt 0.125000 0.500000
vt 0.250000 0.500000
vt 0.375000 0.500000
vt 0.375000 0.750000
vt 0.250000 0.750000
vt 0.125000 0.750000
vt 0.375000 0.750000
vt 0.375000 0.500000
vt 0.375000 0.500000
vt 0.375000 0.750000
vt 0.375000 0.250000
vt 0.375000 0.250000
vt 0.500000 0.250000
vt 0.625000 0.250000
vt 0.875000 0.750000
vt 0.750000 0.750000
vt 0.625000 0.750000
vt 0.625000 1.000000
vt 0.875000 0.750000
vt 0.875000 0.750000
vt 0.875000 0.750000
vt 0.875000 0.750000
vt 0.875000 0.750000
vt 0.875000 0.750000
vt 0.875000 0.625000
vt 0.875000 0.625000
vt 0.875000 0.750000
vt 0.875000 0.750000
vt 0.625000 0.500000
vt 0.375000 1.000000
vt 0.625000 0.375000
vt 0.875000 0.500000
vt 0.625000 0.500000
vt 0.875000 0.500000
vt 0.625000 0.750000
vt 0.625000 0.500000
vt 0.625000 0.500000
vt 0.625000 0.750000
vt 0.625000 0.250000
vt 0.625000 0.375000
vt 0.625000 0.375000
vt 0.625000 0.500000
vt 0.875000 0.750000
vt 0.625000 0.750000
vt 0.625000 0.750000
vt 0.375000 0.750000
vt 0.375000 0.500000
vt 0.375000 0.500000
vt 0.375000 0.750000
vt 0.625000 0.250000
vt 0.625000 0.250000
vt 0.625000 0.375000
vt 0.375000 0.500000
vt 0.375000 0.750000
vt 0.375000 0.750000
vt 0.375000 0.500000
vt 0.875000 0.750000
vt 0.625000 0.250000
vn -0.5868 0.0000 -0.8097
vn -0.4414 -0.1023 0.8914
vn -1.0000 0.0000 0.0000
vn 0.5665 -0.8241 0.0000
vn 0.0000 0.0000 1.0000
vn 0.4414 -0.1023 -0.8914
vn 0.5868 0.0000 0.8097
vn 1.0000 0.0000 0.0000
vn 0.0000 1.0000 0.0000
vn -0.2029 -0.0124 -0.9791
vn 0.0000 -1.0000 0.0000
vn 0.0000 0.0000 -1.0000
vn -0.5868 0.0000 0.8097
vn 0.2935 0.4723 -0.8311
vn 0.5868 0.0000 -0.8097
vn -0.4414 -0.1023 -0.8914
vn -0.5665 -0.8241 0.0000
vn 0.4414 -0.1023 0.8914
vn -0.2935 0.4723 -0.8311
vn -0.9926 -0.1212 0.0000
vn -0.2085 0.1884 0.9597
vn 0.2085 0.1884 -0.9597
vn -0.2967 0.9550 0.0000
vn 0.2967 0.9550 0.0000
vn -0.3201 -0.1138 -0.9405
vn -0.8150 -0.5795 0.0000
vn 0.2935 0.4723 0.8311
vn 0.3201 -0.1138 0.9405
vn 0.8150 -0.5795 0.0000
vn -0.2935 0.4723 0.8311
vn 0.4842 0.8750 0.0000
vn -0.2085 0.1884 -0.9597
vn -0.4842 0.8750 0.0000
vn 0.3201 -0.1138 -0.9405
vn 0.2029 -0.0124 0.9791
vn -0.3201 -0.1138 0.9405
vn 0.2085 0.1884 0.9597
vn 0.2029 -0.0124 -0.9791
vn -0.2029 -0.0124 0.9791
vn 0.9926 -0.1212 0.0000
usemtl Material
s off
f 32/1/1 5/2/1 12/3/1 34/4/1
f 31/5/2 30/6/2 7/7/2 8/8/2
f 8/8/3 7/7/3 5/9/3 6/10/3
f 29/11/4 2/12/4 4/13/4 31/14/4
f 13/15/5 9/16/5 26/17/5 63/18/5 28/19/5
f 29/20/6 32/1/6 1/21/6 2/12/6
f 12/22/3 10/23/3 14/24/3 16/25/3
f 30/6/7 3/26/7 9/16/7 33/27/7
f 5/9/3 7/7/3 10/23/3 12/22/3
f 3/28/8 1/29/8 11/30/8 9/31/8
f 36/32/1 16/33/1 20/34/1 38/35/1
f 33/27/7 9/16/7 13/15/7 35/36/7
f 34/4/1 12/3/1 16/33/1 36/32/1
f 15/37/9 13/38/9 28/39/9 27/40/9
f 58/41/10 57/42/10 39/43/10 61/44/10
f 13/38/8 15/37/8 19/45/8 17/46/8
f 16/25/3 14/24/3 18/47/3 20/48/3
f 35/36/7 13/15/7 17/49/7 37/50/7
f 22/51/8 66/52/8 21/53/8 23/54/8 65/55/8 24/56/8
f 26/57/8 25/58/8 64/59/8 27/40/8 28/39/8 63/60/8
f 3/26/5 4/61/5 24/62/5 65/63/5 23/64/5
f 9/31/11 11/30/11 25/58/11 26/57/11
f 2/12/12 1/21/12 21/65/12 66/66/12 22/67/12
f 4/13/11 2/12/11 22/67/11 24/68/11
f 1/29/9 3/28/9 23/54/9 21/53/9
f 11/69/12 15/70/12 27/71/12 64/72/12 25/73/12
f 14/24/13 35/36/13 37/50/13 18/47/13
f 53/74/14 50/75/14 45/76/14 42/77/14
f 11/69/15 34/4/15 36/32/15 15/70/15
f 10/23/13 33/27/13 35/36/13 14/24/13
f 15/70/15 36/32/15 38/35/15 19/78/15
f 7/7/13 30/6/13 33/27/13 10/23/13
f 6/79/16 5/2/16 32/1/16 29/20/16
f 6/10/17 29/11/17 31/14/17 8/80/17
f 4/61/18 3/26/18 30/6/18 31/5/18
f 1/21/15 32/1/15 34/4/15 11/69/15
f 46/81/9 45/76/9 41/82/9 43/83/9
f 50/75/19 54/84/19 41/82/19 45/76/19
f 57/85/20 60/86/20 48/87/20 39/88/20
f 44/89/9 42/77/9 45/76/9 46/81/9
f 48/87/21 62/90/21 47/91/21 52/92/21
f 40/93/22 61/44/22 50/75/22 53/74/22
f 54/94/23 52/92/23 43/83/23 41/95/23
f 51/96/24 53/97/24 42/98/24 44/99/24
f 38/35/25 20/34/25 57/42/25 58/41/25
f 20/48/26 18/47/26 60/86/26 57/85/26
f 47/91/27 51/100/27 44/89/27 46/81/27
f 37/50/28 17/49/28 55/101/28 59/102/28
f 17/46/29 19/45/29 56/103/29 55/104/29
f 52/92/30 47/91/30 46/81/30 43/83/30
f 49/105/31 40/106/31 53/97/31 51/96/31
f 61/44/32 39/43/32 54/84/32 50/75/32
f 39/88/33 48/87/33 52/92/33 54/94/33
f 19/78/34 38/35/34 58/41/34 56/107/34
f 59/102/35 55/101/35 49/108/35 62/90/35
f 18/47/36 37/50/36 59/102/36 60/86/36
f 62/90/37 49/108/37 51/100/37 47/91/37
f 56/107/38 58/41/38 61/44/38 40/93/38
f 60/86/39 59/102/39 62/90/39 48/87/39
f 55/104/40 56/103/40 40/106/40 49/105/40
l 63 64
l 65 66
