# Blender v2.80 (sub 75) OBJ File: ''
# www.blender.org
mtllib Pumpkin_Seed.mtl
o Pumpkin_Seed_Cube
v 0.055903 0.073832 -0.018020
v 0.219989 -1.000000 -0.102284
v 0.055903 0.073832 0.018020
v 0.219989 -1.000000 0.102284
v -0.055903 0.073832 -0.018020
v -0.219989 -1.000000 -0.102284
v -0.055903 0.073832 0.018020
v -0.219989 -1.000000 0.102284
v 0.392130 -0.592834 -0.126399
v 0.365717 -0.815319 -0.136119
v -0.365717 -0.815319 0.136119
v -0.392130 -0.592834 0.126399
v 0.392130 -0.592834 0.126399
v 0.365717 -0.815319 0.136119
v -0.392130 -0.592834 -0.126399
v -0.365717 -0.815319 -0.136119
v -0.296104 -0.176042 0.058642
v 0.296104 -0.176042 -0.058642
v 0.296104 -0.176042 0.058642
v -0.296104 -0.176042 -0.058642
v -0.237916 -1.040576 0.000000
v 0.055084 0.105099 0.000000
v -0.055084 0.105099 0.000000
v 0.237916 -1.040576 0.000000
v 0.395519 -0.840845 0.000000
v 0.424084 -0.600231 0.000000
v -0.395519 -0.840845 0.000000
v -0.424084 -0.600231 0.000000
v 0.320233 -0.149474 0.000000
v -0.320233 -0.149474 0.000000
vt 0.375000 0.125000
vt 0.625000 0.125000
vt 0.625000 0.250000
vt 0.375000 0.250000
vt 0.593766 0.250000
vt 0.625000 0.250000
vt 0.625000 0.500000
vt 0.593766 0.500000
vt 0.593766 0.625000
vt 0.625000 0.625000
vt 0.625000 0.750000
vt 0.593766 0.750000
vt 0.375000 0.875000
vt 0.625000 0.875000
vt 0.625000 1.000000
vt 0.375000 1.000000
vt 0.343766 0.625000
vt 0.375000 0.625000
vt 0.375000 0.750000
vt 0.343766 0.750000
vt 0.843766 0.500000
vt 0.875000 0.500000
vt 0.875000 0.750000
vt 0.843766 0.750000
vt 0.625000 0.500000
vt 0.708333 0.500000
vt 0.708333 0.750000
vt 0.625000 0.750000
vt 0.791667 0.500000
vt 0.791667 0.750000
vt 0.125000 0.625000
vt 0.208333 0.625000
vt 0.208333 0.750000
vt 0.125000 0.750000
vt 0.291667 0.625000
vt 0.291667 0.750000
vt 0.375000 0.625000
vt 0.458333 0.625000
vt 0.458333 0.750000
vt 0.375000 0.750000
vt 0.541667 0.625000
vt 0.541667 0.750000
vt 0.375000 0.250000
vt 0.458333 0.250000
vt 0.458333 0.500000
vt 0.375000 0.500000
vt 0.541667 0.250000
vt 0.541667 0.500000
vt 0.291667 0.500000
vt 0.343766 0.500000
vt 0.208333 0.500000
vt 0.125000 0.500000
vt 0.375000 0.500000
vt 0.375000 0.000000
vt 0.625000 0.000000
vn 0.0000 0.4993 0.8664
vn 0.0000 0.1605 0.9870
vn -0.5370 0.5868 -0.6060
vn 0.0000 -0.9295 0.3687
vn 0.5370 0.5868 0.6060
vn 0.0000 0.1605 -0.9870
vn 0.0000 -0.1802 -0.9836
vn 0.0000 0.0436 -0.9990
vn 0.7316 -0.6050 0.3142
vn 0.9644 -0.1094 0.2406
vn -0.7316 -0.6050 -0.3142
vn -0.9644 -0.1094 -0.2406
vn 0.0000 -0.1802 0.9836
vn 0.0000 0.0436 0.9990
vn 0.9228 0.2364 0.3042
vn -0.9228 0.2364 -0.3042
vn -0.9228 0.2364 0.3042
vn 0.9228 0.2364 -0.3042
vn -0.9644 -0.1094 0.2406
vn -0.7316 -0.6050 0.3142
vn 0.9644 -0.1094 -0.2406
vn 0.7316 -0.6050 -0.3142
vn 0.5370 0.5868 -0.6060
vn 0.0000 -0.9295 -0.3687
vn -0.5370 0.5868 0.6060
vn 0.0000 0.4993 -0.8664
usemtl Material
s off
f 22/1/1 23/2/1 7/3/1 3/4/1
f 19/5/2 3/6/2 7/7/2 17/8/2
f 30/9/3 23/10/3 5/11/3 20/12/3
f 21/13/4 24/14/4 4/15/4 8/16/4
f 29/17/5 22/18/5 3/19/5 19/20/5
f 20/21/6 5/22/6 1/23/6 18/24/6
f 6/25/7 16/26/7 10/27/7 2/28/7
f 16/26/8 15/29/8 9/30/8 10/27/8
f 24/31/9 25/32/9 14/33/9 4/34/9
f 25/32/10 26/35/10 13/36/10 14/33/10
f 21/37/11 27/38/11 16/39/11 6/40/11
f 27/38/12 28/41/12 15/42/12 16/39/12
f 4/43/13 14/44/13 11/45/13 8/46/13
f 14/44/14 13/47/14 12/48/14 11/45/14
f 15/29/6 20/21/6 18/24/6 9/30/6
f 26/35/15 29/17/15 19/20/15 13/36/15
f 28/41/16 30/9/16 20/12/16 15/42/16
f 13/47/2 19/5/2 17/8/2 12/48/2
f 12/48/17 17/8/17 30/9/17 28/41/17
f 9/49/18 18/50/18 29/17/18 26/35/18
f 11/45/19 12/48/19 28/41/19 27/38/19
f 8/46/20 11/45/20 27/38/20 21/37/20
f 10/51/21 9/49/21 26/35/21 25/32/21
f 2/52/22 10/51/22 25/32/22 24/31/22
f 18/50/23 1/53/23 22/18/23 29/17/23
f 6/40/24 2/28/24 24/14/24 21/13/24
f 17/8/25 7/7/25 23/10/25 30/9/25
f 1/54/26 5/55/26 23/2/26 22/1/26
