# Blender v2.80 (sub 75) OBJ File: ''
# www.blender.org
mtllib Ramp.mtl
v 0.923605 -0.923605 1.073872
v 0.923605 0.923605 1.073872
v 0.923605 -0.923605 -0.973550
v 0.923605 -0.106816 0.746880
v 0.923605 0.024686 0.825448
v 0.923605 -0.846087 -0.373066
v 0.923605 -0.230746 0.656839
v 0.923605 -0.812000 -0.223721
v 0.923605 -0.866650 -0.524866
v 0.923605 -0.704457 0.062826
v 0.923605 0.453786 0.986492
v 0.923605 -0.764663 -0.078033
v 0.923605 -0.631867 0.197721
v 0.923605 -0.873522 -0.677897
v 0.923605 -0.874038 -0.743512
v 0.923605 0.162702 0.891913
v 0.923605 0.306120 0.945739
v 0.923605 0.604510 1.013844
v 0.923605 0.757079 1.027575
v 0.923605 -0.346106 0.556053
v 0.923605 -0.451967 0.445331
v 0.923605 -0.547477 0.325565
v 0.923605 0.923605 1.032512
v 0.923605 -0.923605 0.887743
v 0.923605 -0.923605 0.701614
v 0.923605 -0.923605 0.515484
v 0.923605 -0.923605 0.329355
v 0.923605 -0.923605 0.143226
v 0.923605 -0.923605 -0.042903
v 0.923605 -0.923605 -0.229033
v 0.923605 -0.923605 -0.415162
v 0.923605 -0.923605 -0.601291
v 0.923605 -0.923605 -0.684572
v 0.923605 0.757339 1.073872
v 0.923605 0.594720 1.073872
v 0.923605 0.426791 1.073872
v 0.923605 0.150301 1.073872
v 0.923605 -0.044291 1.073872
v 0.923605 -0.238884 1.073872
v 0.923605 -0.458236 1.073872
v 0.923605 -0.669970 1.073872
v 0.000000 -0.923605 1.073872
v 0.000000 0.923605 1.073872
v 0.000000 -0.923605 -0.973550
v -0.923605 -0.923605 1.073872
v -0.923605 0.923605 1.073872
v -0.923605 -0.923605 -0.973550
v -0.923605 -0.106816 0.746880
v -0.923605 0.024686 0.825448
v -0.923605 -0.846087 -0.373066
v -0.923605 -0.230746 0.656839
v -0.923605 -0.812000 -0.223721
v -0.923605 -0.866650 -0.524866
v -0.923605 -0.704457 0.062826
v -0.923605 0.453786 0.986492
v -0.923605 -0.764663 -0.078033
v -0.923605 -0.631867 0.197721
v -0.923605 -0.873522 -0.677897
v -0.923605 -0.874038 -0.743512
v -0.923605 0.162702 0.891913
v -0.923605 0.306120 0.945739
v -0.923605 0.604510 1.013844
v -0.923605 0.757079 1.027575
v -0.923605 -0.346106 0.556053
v -0.923605 -0.451967 0.445331
v -0.923605 -0.547477 0.325565
v -0.923605 0.923605 1.032512
v -0.923605 -0.923605 0.887743
v -0.923605 -0.923605 0.701614
v -0.923605 -0.923605 0.515484
v -0.923605 -0.923605 0.329355
v -0.923605 -0.923605 0.143226
v -0.923605 -0.923605 -0.042903
v -0.923605 -0.923605 -0.229033
v -0.923605 -0.923605 -0.415162
v -0.923605 -0.923605 -0.601291
v -0.923605 -0.923605 -0.684572
v -0.923605 0.757339 1.073872
v 0.000000 -0.923605 -0.973550
v 0.000000 0.923605 1.073872
v -0.923605 0.594720 1.073872
v -0.923605 0.426791 1.073872
v -0.923605 0.150301 1.073872
v -0.923605 -0.044291 1.073872
v -0.923605 -0.238884 1.073872
v -0.923605 -0.458236 1.073872
v -0.923605 -0.669970 1.073872
v 0.000000 -0.874038 -0.743512
v 0.000000 -0.846087 -0.373066
v 0.000000 0.162702 0.891913
v 0.000000 0.604510 1.013844
v 0.000000 -0.704457 0.062826
v 0.000000 -0.451967 0.445331
v 0.000000 -0.873522 -0.677897
v 0.000000 -0.106816 0.746880
v 0.000000 0.306120 0.945739
v 0.000000 -0.812000 -0.223721
v 0.000000 -0.631867 0.197721
v 0.000000 0.757079 1.027575
v 0.000000 -0.346106 0.556053
v 0.000000 -0.866650 -0.524866
v 0.000000 0.024686 0.825449
v 0.000000 -0.764663 -0.078033
v 0.000000 0.453786 0.986492
v 0.000000 0.923605 1.032901
v 0.000000 -0.547477 0.325566
v 0.000000 -0.230746 0.656839
vt 0.375000 0.375000
vt 0.394761 0.500000
vt 0.375000 0.500000
vt 0.462241 0.667205
vt 0.477083 0.680173
vt 0.420455 0.750000
vt 0.534091 0.750000
vt 0.602273 0.750000
vt 0.625000 1.000000
vt 0.375000 0.681818
vt 0.375000 0.704545
vt 0.125000 0.750000
vt 0.385713 0.813497
vt 0.399999 0.733309
vt 0.385713 0.733309
vt 0.299999 0.813497
vt 0.314285 0.733308
vt 0.299999 0.733309
vt 0.314285 0.813497
vt 0.328570 0.733309
vt 0.271428 0.813497
vt 0.285713 0.733309
vt 0.271428 0.733309
vt 0.471428 0.813497
vt 0.485713 0.733309
vt 0.471428 0.733309
vt 0.414285 0.813497
vt 0.428570 0.733309
vt 0.414285 0.733309
vt 0.257142 0.813497
vt 0.257142 0.733309
vt 0.428570 0.813497
vt 0.442856 0.733309
vt 0.442856 0.813497
vt 0.457142 0.733308
vt 0.342856 0.813497
vt 0.357142 0.733308
vt 0.342856 0.733309
vt 0.499999 0.733309
vt 0.506124 0.813497
vt 0.506124 0.733309
vt 0.371428 0.813497
vt 0.371428 0.733309
vt 0.485713 0.813497
vt 0.328570 0.813497
vt 0.399999 0.813497
vt 0.285713 0.813497
vt 0.357142 0.813497
vt 0.242856 0.813497
vt 0.242856 0.733309
vt 0.750000 0.727773
vt 0.625000 0.750000
vt 0.625000 0.727773
vt 0.394761 0.500000
vt 0.394761 0.375000
vt 0.488636 0.750000
vt 0.546158 0.717344
vt 0.527706 0.710418
vt 0.465909 0.750000
vt 0.375000 0.636364
vt 0.375000 0.613636
vt 0.250000 0.500000
vt 0.385713 0.813497
vt 0.299999 0.813497
vt 0.314285 0.813497
vt 0.271428 0.813497
vt 0.471428 0.813497
vt 0.414285 0.813497
vt 0.257142 0.813497
vt 0.428570 0.813497
vt 0.442856 0.813497
vt 0.342856 0.813497
vt 0.506124 0.813497
vt 0.499999 0.813497
vt 0.457142 0.813497
vt 0.371428 0.813497
vt 0.485713 0.813497
vt 0.328570 0.813497
vt 0.399999 0.813497
vt 0.285713 0.813497
vt 0.357142 0.813497
vt 0.242856 0.813497
vt 0.625000 0.750000
vt 0.625000 0.727773
vt 0.375000 0.522727
vt 0.394382 0.508442
vt 0.375000 0.590909
vt 0.375000 0.568182
vt 0.397912 0.547663
vt 0.375000 0.545455
vt 0.395266 0.528131
vt 0.375000 0.636364
vt 0.375000 0.613636
vt 0.416135 0.603746
vt 0.402298 0.566878
vt 0.375000 0.659091
vt 0.436332 0.637550
vt 0.425474 0.621101
vt 0.408388 0.585622
vt 0.375000 0.727273
vt 0.397727 0.750000
vt 0.448621 0.652960
vt 0.375000 0.750000
vt 0.465909 0.750000
vt 0.443182 0.750000
vt 0.493029 0.691758
vt 0.511364 0.750000
vt 0.565157 0.722587
vt 0.488636 0.750000
vt 0.546158 0.717344
vt 0.527706 0.710418
vt 0.509948 0.701867
vt 0.556818 0.750000
vt 0.584550 0.726106
vt 0.604180 0.727873
vt 0.375000 1.000000
vt 0.625000 0.875000
vt 0.125000 0.500000
vt 0.457142 0.813497
vt 0.499999 0.813497
vt 0.750000 0.750000
vt 0.375000 0.500000
vt 0.375000 0.522727
vt 0.375000 0.545455
vt 0.375000 0.568182
vt 0.395266 0.528131
vt 0.375000 0.590909
vt 0.397912 0.547663
vt 0.394382 0.508442
vt 0.402298 0.566878
vt 0.416135 0.603746
vt 0.375000 0.659091
vt 0.425474 0.621101
vt 0.375000 0.681818
vt 0.436332 0.637550
vt 0.408388 0.585622
vt 0.375000 0.704545
vt 0.448621 0.652960
vt 0.375000 0.727273
vt 0.397727 0.750000
vt 0.375000 0.750000
vt 0.420455 0.750000
vt 0.462241 0.667205
vt 0.443182 0.750000
vt 0.477083 0.680173
vt 0.493029 0.691758
vt 0.565157 0.722587
vt 0.511364 0.750000
vt 0.534091 0.750000
vt 0.584550 0.726106
vt 0.556818 0.750000
vt 0.604180 0.727873
vt 0.509948 0.701867
vt 0.602273 0.750000
vn 0.0000 0.9776 -0.2106
vn 1.0000 0.0000 0.0000
vn 0.0000 0.0000 1.0000
vn 0.0000 -1.0000 0.0000
vn 0.0000 0.7818 -0.6235
vn 0.0000 0.3514 -0.9362
vn -0.0000 0.4339 -0.9010
vn 0.0000 0.1786 -0.9839
vn 0.0000 0.9909 -0.1342
vn 0.0000 0.8806 -0.4739
vn 0.0000 0.0896 -0.9960
vn 0.0000 0.9195 -0.3930
vn 0.0000 0.9511 -0.3090
vn 0.0000 0.5878 -0.8090
vn 0.0000 1.0000 -0.0079
vn 0.0000 0.9749 -0.2225
vn 0.0000 0.7228 -0.6911
vn 0.0000 0.9990 -0.0449
vn 0.0000 0.5129 -0.8584
vn 0.0000 0.8346 -0.5509
vn 0.0000 0.2660 -0.9640
vn 0.0000 0.6579 -0.7531
vn -0.0004 0.0320 -0.9995
vn 0.0000 1.0000 0.0000
vn -1.0000 -0.0000 0.0000
vn 0.0004 0.0320 -0.9995
vn 0.0000 0.0296 -0.9996
usemtl None
s off
f 79/1/1 15/2/1 3/3/1
f 20/4/2 7/5/2 40/6/2
f 35/7/3 34/8/3 43/9/3
f 26/10/4 25/11/4 42/12/4
f 21/13/5 106/14/5 93/15/5
f 17/16/6 90/17/6 96/18/6
f 16/19/7 102/20/7 90/17/7
f 18/21/8 104/22/8 91/23/8
f 6/24/9 101/25/9 89/26/9
f 13/27/10 92/28/10 98/29/10
f 19/30/11 91/23/11 99/31/11
f 10/32/12 103/33/12 92/28/12
f 12/34/13 97/35/13 103/33/13
f 4/36/14 107/37/14 95/38/14
f 94/39/15 15/40/15 88/41/15
f 97/35/16 6/24/16 89/26/16
f 20/42/17 93/15/17 100/43/17
f 9/44/18 94/39/18 101/25/18
f 5/45/19 95/38/19 102/20/19
f 22/46/20 98/29/20 106/14/20
f 11/47/21 96/18/21 104/22/21
f 7/48/22 100/43/22 107/37/22
f 23/49/23 99/31/23 105/50/23
f 105/51/24 2/52/24 23/53/24
f 79/1/1 59/54/1 88/55/1
f 83/56/25 61/57/25 60/58/25
f 83/56/3 84/59/3 43/9/3
f 72/60/4 73/61/4 79/62/4
f 106/14/5 65/63/5 93/15/5
f 90/17/6 61/64/6 96/18/6
f 102/20/7 60/65/7 90/17/7
f 104/22/8 62/66/8 91/23/8
f 101/25/9 50/67/9 89/26/9
f 92/28/10 57/68/10 98/29/10
f 91/23/11 63/69/11 99/31/11
f 103/33/12 54/70/12 92/28/12
f 97/35/13 56/71/13 103/33/13
f 107/37/14 48/72/14 95/38/14
f 94/39/15 59/73/15 58/74/15
f 97/35/16 50/67/16 52/75/16
f 93/15/17 64/76/17 100/43/17
f 94/39/18 53/77/18 101/25/18
f 95/38/19 49/78/19 102/20/19
f 98/29/20 66/79/20 106/14/20
f 96/18/21 55/80/21 104/22/21
f 100/43/22 51/81/22 107/37/22
f 99/31/26 67/82/26 105/50/26
f 46/83/24 105/51/24 67/84/24
f 79/1/1 88/55/1 15/2/1
f 33/85/2 3/3/2 15/2/2
f 33/85/2 15/2/2 14/86/2
f 30/87/2 31/88/2 6/89/2
f 31/88/2 32/90/2 9/91/2
f 32/90/2 33/85/2 14/86/2
f 32/90/2 14/86/2 9/91/2
f 28/92/2 29/93/2 10/94/2
f 29/93/2 30/87/2 8/95/2
f 8/95/2 30/87/2 6/89/2
f 31/88/2 9/91/2 6/89/2
f 26/10/2 27/96/2 22/97/2
f 27/96/2 28/92/2 13/98/2
f 10/94/2 29/93/2 12/99/2
f 29/93/2 8/95/2 12/99/2
f 24/100/2 25/11/2 41/101/2
f 25/11/2 26/10/2 21/102/2
f 28/92/2 10/94/2 13/98/2
f 41/101/2 1/103/2 24/100/2
f 27/96/2 13/98/2 22/97/2
f 40/6/2 41/101/2 20/4/2
f 20/4/2 41/101/2 25/11/2
f 38/104/2 39/105/2 4/106/2
f 39/105/2 40/6/2 7/5/2
f 39/105/2 7/5/2 4/106/2
f 35/7/2 36/107/2 11/108/2
f 36/107/2 37/109/2 17/110/2
f 17/110/2 37/109/2 16/111/2
f 38/104/2 4/106/2 5/112/2
f 34/113/2 35/7/2 18/114/2
f 11/108/2 36/107/2 17/110/2
f 37/109/2 38/104/2 16/111/2
f 16/111/2 38/104/2 5/112/2
f 26/10/2 22/97/2 21/102/2
f 34/113/2 18/114/2 19/115/2
f 23/53/2 2/52/2 34/113/2
f 19/115/2 23/53/2 34/113/2
f 25/11/2 21/102/2 20/4/2
f 18/114/2 35/7/2 11/108/2
f 42/116/3 1/103/3 41/101/3
f 40/6/3 39/105/3 42/116/3
f 39/105/3 38/104/3 42/116/3
f 42/116/3 38/104/3 43/9/3
f 42/116/3 41/101/3 40/6/3
f 2/52/3 80/117/3 43/9/3
f 38/104/3 37/109/3 43/9/3
f 37/109/3 36/107/3 43/9/3
f 34/8/3 2/52/3 43/9/3
f 36/107/3 35/7/3 43/9/3
f 42/12/3 44/118/3 79/62/3
f 79/62/4 3/3/4 33/85/4
f 33/85/4 32/90/4 79/62/4
f 32/90/4 31/88/4 79/62/4
f 31/88/4 30/87/4 79/62/4
f 30/87/4 29/93/4 79/62/4
f 28/92/4 27/96/4 42/12/4
f 27/96/4 26/10/4 42/12/4
f 28/92/4 42/12/4 79/62/4
f 29/93/4 28/92/4 79/62/4
f 1/103/4 42/12/4 24/100/4
f 24/100/4 42/12/4 25/11/4
f 21/13/5 22/46/5 106/14/5
f 17/16/6 16/19/6 90/17/6
f 16/19/7 5/45/7 102/20/7
f 18/21/8 11/47/8 104/22/8
f 6/24/9 9/44/9 101/25/9
f 13/27/10 10/32/10 92/28/10
f 19/30/11 18/21/11 91/23/11
f 10/32/12 12/34/12 103/33/12
f 12/34/13 8/119/13 97/35/13
f 4/36/14 7/48/14 107/37/14
f 94/39/15 14/120/15 15/40/15
f 97/35/16 8/119/16 6/24/16
f 20/42/17 21/13/17 93/15/17
f 9/44/18 14/120/18 94/39/18
f 5/45/19 4/36/19 95/38/19
f 22/46/20 13/27/20 98/29/20
f 11/47/21 17/16/21 96/18/21
f 7/48/22 20/42/22 100/43/22
f 23/49/27 19/30/27 99/31/27
f 105/51/24 80/121/24 2/52/24
f 79/1/1 47/122/1 59/54/1
f 59/54/25 47/122/25 77/123/25
f 76/124/25 75/125/25 53/126/25
f 75/125/25 74/127/25 50/128/25
f 76/124/25 53/126/25 58/129/25
f 59/54/25 77/123/25 58/129/25
f 77/123/25 76/124/25 58/129/25
f 74/127/25 73/61/25 52/130/25
f 73/61/25 72/60/25 54/131/25
f 53/126/25 75/125/25 50/128/25
f 72/60/25 71/132/25 57/133/25
f 71/132/25 70/134/25 66/135/25
f 56/136/25 73/61/25 54/131/25
f 50/128/25 74/127/25 52/130/25
f 52/130/25 73/61/25 56/136/25
f 70/134/25 69/137/25 65/138/25
f 69/137/25 68/139/25 87/140/25
f 72/60/25 57/133/25 54/131/25
f 68/139/25 45/141/25 87/140/25
f 57/133/25 71/132/25 66/135/25
f 87/140/25 86/142/25 64/143/25
f 69/137/25 64/143/25 65/138/25
f 86/142/25 85/144/25 51/145/25
f 85/144/25 84/59/25 48/146/25
f 55/147/25 82/148/25 81/149/25
f 83/56/25 82/148/25 61/57/25
f 62/150/25 78/151/25 63/152/25
f 82/148/25 55/147/25 61/57/25
f 84/59/25 83/56/25 60/58/25
f 55/147/25 81/149/25 62/150/25
f 64/143/25 69/137/25 87/140/25
f 66/135/25 70/134/25 65/138/25
f 78/151/25 62/150/25 81/149/25
f 63/152/25 78/151/25 67/84/25
f 78/151/25 46/83/25 67/84/25
f 51/145/25 64/143/25 86/142/25
f 48/146/25 51/145/25 85/144/25
f 49/153/25 48/146/25 84/59/25
f 60/58/25 49/153/25 84/59/25
f 87/140/3 45/141/3 42/116/3
f 43/9/3 80/117/3 46/83/3
f 87/140/3 42/116/3 86/142/3
f 42/116/3 43/9/3 84/59/3
f 86/142/3 42/116/3 85/144/3
f 84/59/3 85/144/3 42/116/3
f 43/9/3 46/83/3 78/154/3
f 81/149/3 82/148/3 43/9/3
f 82/148/3 83/56/3 43/9/3
f 43/9/3 78/154/3 81/149/3
f 79/62/3 44/118/3 42/12/3
f 42/12/4 45/141/4 68/139/4
f 68/139/4 69/137/4 42/12/4
f 69/137/4 70/134/4 42/12/4
f 42/12/4 70/134/4 71/132/4
f 79/62/4 42/12/4 72/60/4
f 77/123/4 47/122/4 79/62/4
f 75/125/4 76/124/4 79/62/4
f 76/124/4 77/123/4 79/62/4
f 73/61/4 74/127/4 79/62/4
f 74/127/4 75/125/4 79/62/4
f 71/132/4 72/60/4 42/12/4
f 106/14/5 66/79/5 65/63/5
f 90/17/6 60/65/6 61/64/6
f 102/20/7 49/78/7 60/65/7
f 104/22/8 55/80/8 62/66/8
f 101/25/9 53/77/9 50/67/9
f 92/28/10 54/70/10 57/68/10
f 91/23/11 62/66/11 63/69/11
f 103/33/12 56/71/12 54/70/12
f 97/35/13 52/75/13 56/71/13
f 107/37/14 51/81/14 48/72/14
f 94/39/15 88/41/15 59/73/15
f 97/35/16 89/26/16 50/67/16
f 93/15/17 65/63/17 64/76/17
f 94/39/18 58/74/18 53/77/18
f 95/38/19 48/72/19 49/78/19
f 98/29/20 57/68/20 66/79/20
f 96/18/21 61/64/21 55/80/21
f 100/43/22 64/76/22 51/81/22
f 99/31/27 63/69/27 67/82/27
f 46/83/24 80/121/24 105/51/24
l 12 28
l 10 27
l 13 26
l 22 25
l 21 24
l 1 20
l 7 41
l 4 40
l 5 39
l 56 72
l 54 71
l 57 70
l 66 69
l 65 68
l 45 64
l 51 87
l 48 86
l 49 85
