# Blender v2.80 (sub 75) OBJ File: ''
# www.blender.org
mtllib Sunflower_Seed.mtl
o Sunflower_Seed_Cube.001
v 0.040738 0.123055 -0.018020
v 0.109695 -0.814049 -0.054323
v 0.040738 0.123055 0.018020
v 0.109695 -0.814049 0.054323
v -0.040738 0.123055 -0.018020
v -0.109695 -0.814049 -0.054323
v -0.040738 0.123055 0.018020
v -0.109695 -0.814049 0.054323
v 0.195531 -0.406883 -0.067130
v 0.182361 -0.629367 -0.072293
v -0.182361 -0.629367 0.072293
v -0.195531 -0.406883 0.067130
v 0.195531 -0.406883 0.067130
v 0.182361 -0.629367 0.072293
v -0.195531 -0.406883 -0.067130
v -0.182361 -0.629367 -0.072293
v -0.147649 -0.176042 0.058642
v 0.147649 -0.176042 -0.058642
v 0.147649 -0.176042 0.058642
v -0.147649 -0.176042 -0.058642
v -0.118634 -0.854625 0.000000
v 0.040141 0.154321 0.000000
v -0.040141 0.154321 0.000000
v 0.118634 -0.854625 0.000000
v 0.197221 -0.654894 0.000000
v 0.211465 -0.414280 0.000000
v -0.197221 -0.654894 0.000000
v -0.211465 -0.414280 0.000000
v 0.159681 -0.149474 0.000000
v -0.159681 -0.149474 0.000000
vt 0.375000 0.125000
vt 0.625000 0.125000
vt 0.625000 0.250000
vt 0.375000 0.250000
vt 0.593766 0.250000
vt 0.625000 0.250000
vt 0.625000 0.500000
vt 0.593766 0.500000
vt 0.593766 0.625000
vt 0.625000 0.625000
vt 0.625000 0.750000
vt 0.593766 0.750000
vt 0.375000 0.875000
vt 0.625000 0.875000
vt 0.625000 1.000000
vt 0.375000 1.000000
vt 0.343766 0.625000
vt 0.375000 0.625000
vt 0.375000 0.750000
vt 0.343766 0.750000
vt 0.843766 0.500000
vt 0.875000 0.500000
vt 0.875000 0.750000
vt 0.843766 0.750000
vt 0.625000 0.500000
vt 0.708333 0.500000
vt 0.708333 0.750000
vt 0.625000 0.750000
vt 0.791667 0.500000
vt 0.791667 0.750000
vt 0.125000 0.625000
vt 0.208333 0.625000
vt 0.208333 0.750000
vt 0.125000 0.750000
vt 0.291667 0.625000
vt 0.291667 0.750000
vt 0.375000 0.625000
vt 0.458333 0.625000
vt 0.458333 0.750000
vt 0.375000 0.750000
vt 0.541667 0.625000
vt 0.541667 0.750000
vt 0.375000 0.250000
vt 0.458333 0.250000
vt 0.458333 0.500000
vt 0.375000 0.500000
vt 0.541667 0.250000
vt 0.541667 0.500000
vt 0.291667 0.500000
vt 0.343766 0.500000
vt 0.208333 0.500000
vt 0.125000 0.500000
vt 0.375000 0.500000
vt 0.375000 0.000000
vt 0.625000 0.000000
vn 0.0000 0.4993 0.8664
vn 0.0000 0.1346 0.9909
vn -0.8535 0.3468 -0.3889
vn 0.0000 -0.8012 0.5984
vn 0.8535 0.3468 0.3889
vn 0.0000 0.1346 -0.9909
vn 0.0000 -0.0968 -0.9953
vn 0.0000 0.0232 -0.9997
vn 0.8663 -0.3572 0.3493
vn 0.9722 -0.0550 0.2277
vn -0.8663 -0.3572 -0.3493
vn -0.9722 -0.0550 -0.2277
vn 0.0000 -0.0968 0.9953
vn 0.0000 0.0232 0.9997
vn 0.0000 0.0367 -0.9993
vn 0.9506 0.1953 0.2411
vn -0.9506 0.1953 -0.2411
vn 0.0000 0.0367 0.9993
vn -0.9506 0.1953 0.2411
vn 0.9506 0.1953 -0.2411
vn -0.9722 -0.0550 0.2277
vn -0.8663 -0.3572 0.3493
vn 0.9722 -0.0550 -0.2277
vn 0.8663 -0.3572 -0.3493
vn 0.8535 0.3468 -0.3889
vn 0.0000 -0.8012 -0.5984
vn -0.8535 0.3468 0.3889
vn 0.0000 0.4993 -0.8664
usemtl Material.001
s off
f 22/1/1 23/2/1 7/3/1 3/4/1
f 19/5/2 3/6/2 7/7/2 17/8/2
f 30/9/3 23/10/3 5/11/3 20/12/3
f 21/13/4 24/14/4 4/15/4 8/16/4
f 29/17/5 22/18/5 3/19/5 19/20/5
f 20/21/6 5/22/6 1/23/6 18/24/6
f 6/25/7 16/26/7 10/27/7 2/28/7
f 16/26/8 15/29/8 9/30/8 10/27/8
f 24/31/9 25/32/9 14/33/9 4/34/9
f 25/32/10 26/35/10 13/36/10 14/33/10
f 21/37/11 27/38/11 16/39/11 6/40/11
f 27/38/12 28/41/12 15/42/12 16/39/12
f 4/43/13 14/44/13 11/45/13 8/46/13
f 14/44/14 13/47/14 12/48/14 11/45/14
f 15/29/15 20/21/15 18/24/15 9/30/15
f 26/35/16 29/17/16 19/20/16 13/36/16
f 28/41/17 30/9/17 20/12/17 15/42/17
f 13/47/18 19/5/18 17/8/18 12/48/18
f 12/48/19 17/8/19 30/9/19 28/41/19
f 9/49/20 18/50/20 29/17/20 26/35/20
f 11/45/21 12/48/21 28/41/21 27/38/21
f 8/46/22 11/45/22 27/38/22 21/37/22
f 10/51/23 9/49/23 26/35/23 25/32/23
f 2/52/24 10/51/24 25/32/24 24/31/24
f 18/50/25 1/53/25 22/18/25 29/17/25
f 6/40/26 2/28/26 24/14/26 21/13/26
f 17/8/27 7/7/27 23/10/27 30/9/27
f 1/54/28 5/55/28 23/2/28 22/1/28
